<svg width="42" height="42" viewBox="0 0 42 42" fill="none" xmlns="http://www.w3.org/2000/svg">
<path fill-rule="evenodd" clip-rule="evenodd" d="M40.3798 1.84336C40.3798 2.86142 39.5428 3.68672 38.5104 3.68672C37.4779 3.68672 36.6409 2.86142 36.6409 1.84336C36.6409 0.8253 37.4779 0 38.5104 0C39.5428 0 40.3798 0.8253 40.3798 1.84336ZM26.6083 4.54695C27.744 4.54695 28.6647 3.63912 28.6647 2.51926C28.6647 1.39939 27.744 0.491562 26.6083 0.491562C25.4726 0.491562 24.5519 1.39939 24.5519 2.51926C24.5519 3.63912 25.4726 4.54695 26.6083 4.54695ZM34.8961 5.53008C34.8961 6.88749 33.7802 7.98789 32.4036 7.98789C31.0269 7.98789 29.911 6.88749 29.911 5.53008C29.911 4.17266 31.0269 3.07226 32.4036 3.07226C33.7802 3.07226 34.8961 4.17266 34.8961 5.53008ZM41.6261 16.0372C41.6261 18.3788 39.7011 20.2769 37.3264 20.2769C34.9517 20.2769 33.0267 18.3788 33.0267 16.0372C33.0267 13.6957 34.9517 11.7975 37.3264 11.7975C39.7011 11.7975 41.6261 13.6957 41.6261 16.0372ZM21.5608 3.87105C21.5608 4.78731 20.8076 5.53008 19.8783 5.53008C18.9491 5.53008 18.1958 4.78731 18.1958 3.87105C18.1958 2.9548 18.9491 2.21203 19.8783 2.21203C20.8076 2.21203 21.5608 2.9548 21.5608 3.87105ZM39.3828 10.6915C40.8282 10.6915 42 9.53606 42 8.11078C42 6.6855 40.8282 5.53008 39.3828 5.53008C37.9373 5.53008 36.7656 6.6855 36.7656 8.11078C36.7656 9.53606 37.9373 10.6915 39.3828 10.6915ZM5.05039 10.2614C5.3625 12.1784 5.0915 12.6951 4.8008 13.1973C1.833 16.1508 0 20.2148 0 24.701C0 33.7278 7.42118 41.0455 16.5757 41.0455C24.12 41.0455 30.4872 36.0756 32.4935 29.2749L32.4992 29.2601C32.5112 29.2286 32.5208 29.2036 32.5282 29.1865C32.7098 28.7686 32.9612 28.7538 33.0652 28.7477L33.0739 28.7471C35.4825 28.5964 37.3887 26.6224 37.3887 24.2094C37.3887 21.6982 35.3242 19.6625 32.7774 19.6625C32.6152 19.6625 32.4548 19.6708 32.2969 19.6869C31.7519 19.7098 31.3569 19.5083 31.2196 19.1709C31.0895 18.8512 31.042 18.2583 31.3743 17.7394C32.3337 16.4773 32.9021 14.9094 32.9021 13.2107C32.9021 9.0367 29.4705 5.65297 25.2374 5.65297C22.7832 5.65297 20.5985 6.79029 19.1956 8.55958L19.1929 8.55915C18.6708 9.22854 17.7707 9.16831 17.5986 9.15679C17.5858 9.15594 17.577 9.15535 17.5727 9.15535C17.5408 9.15535 16.7003 9.03246 16.4799 8.35683L16.4791 8.35683C15.9815 5.69954 13.6193 3.68672 10.7804 3.68672C7.57979 3.68672 4.98516 6.24515 4.98516 9.40113C4.98516 9.69352 5.00743 9.98079 5.05039 10.2614Z" fill="url(#paint0_linear_1_26210)"/>
<path fill-rule="evenodd" clip-rule="evenodd" d="M14.457 18.6794C15.3518 18.6794 16.0772 17.9641 16.0772 17.0818C16.0772 16.1995 15.3518 15.4843 14.457 15.4843C13.8834 15.4843 13.3794 15.7782 13.0915 16.2216H9.97034V17.9421H13.0915C13.3794 18.3855 13.8834 18.6794 14.457 18.6794ZM20.5638 26.1757C20.5638 26.7413 20.2657 27.2383 19.816 27.5222V32.8118H18.0712V27.5222C17.6215 27.2383 17.3235 26.7413 17.3235 26.1757C17.3235 25.2934 18.0488 24.5782 18.9436 24.5782C19.8384 24.5782 20.5638 25.2934 20.5638 26.1757ZM19.6664 21.9975L15.7033 25.9052V32.8118H13.9585V25.1926H13.9835L13.971 25.1803L18.9436 20.277H23.4303V21.9975H19.6664ZM23.4303 17.9421H19.5529L15.454 21.9838V21.9975H15.4401L15.4395 21.9981L15.4388 21.9975H9.97034V20.277H14.7174L18.819 16.2326V16.2216H18.8302H23.4303V17.9421Z" fill="white"/>
<path fill-rule="evenodd" clip-rule="evenodd" d="M15.7033 30.2362C14.6756 30.6942 13.9585 31.7301 13.9585 32.9346C13.9585 34.5635 15.2698 35.884 16.8873 35.884C18.5048 35.884 19.8161 34.5635 19.8161 32.9346C19.8161 31.7301 19.099 30.6942 18.0713 30.2362V32.9796C18.0713 33.6335 17.5412 34.1636 16.8873 34.1636C16.2334 34.1636 15.7033 33.6335 15.7033 32.9796V30.2362Z" fill="white"/>
<path fill-rule="evenodd" clip-rule="evenodd" d="M20.6885 20.277C21.1529 21.2904 22.2035 21.9974 23.4251 21.9974C25.077 21.9974 26.4162 20.7045 26.4162 19.1095C26.4162 17.5145 25.077 16.2216 23.4251 16.2216C22.2035 16.2216 21.1529 16.9287 20.6885 17.942H23.5039C24.1487 17.942 24.6714 18.4647 24.6714 19.1095C24.6714 19.7543 24.1487 20.277 23.5039 20.277H20.6885Z" fill="white"/>
<path fill-rule="evenodd" clip-rule="evenodd" d="M12.8315 17.942C12.3671 16.9286 11.3165 16.2216 10.0949 16.2216C8.44299 16.2216 7.10383 17.5145 7.10383 19.1095C7.10383 20.7044 8.44299 21.9974 10.0949 21.9974C11.3165 21.9974 12.3671 21.2903 12.8315 20.2769H10.0161C9.37133 20.2769 8.84864 19.7543 8.84864 19.1095C8.84864 18.4647 9.37133 17.942 10.0161 17.942H12.8315Z" fill="white"/>
<defs>
<linearGradient id="paint0_linear_1_26210" x1="44.7573" y1="13.6409" x2="0.9768" y2="17.9509" gradientUnits="userSpaceOnUse">
<stop stop-color="#748AFF"/>
<stop offset="0.626386" stop-color="#4361FF"/>
</linearGradient>
</defs>
</svg>
